<?xml version="1.0" encoding="UTF-8"?>
<svg width="85px" height="114px" viewBox="0 0 85 114" version="1.1" xmlns="http://www.w3.org/2000/svg" xmlns:xlink="http://www.w3.org/1999/xlink">
    <!-- Generator: Sketch 54.1 (76490) - https://sketchapp.com -->
    <title>Group 2</title>
    <desc>Created with Sketch.</desc>
    <g id="Page-1" stroke="none" stroke-width="1" fill="none" fill-rule="evenodd">
        <g id="Group-2" transform="translate(3.874098, 2.000000)">
            <path id="Line-6" d="M0.226823416,81.6694487 L-1.15903371,92.5320646 L-3.14295299,92.2789553 L-1.04898671,75.8660431 L11.8901071,86.1785711 L10.6435749,87.7425908 L2.07900314,80.9165806 L5.08773109,88.3376862 C12.3611013,102.818812 23.2430803,110 37.8552093,110 C52.5680902,110 64.0554686,102.715829 72.3829757,88.1032299 L75.8683483,80.7899323 L66.9157426,87.0961097 L65.7639991,85.4610296 L79.290974,75.932686 L80.4094973,92.4407836 L78.4140724,92.5759857 L77.6737219,81.6492767 L74.1545983,89.0284403 C65.4510833,104.306471 53.3181349,112 37.8552093,112 C22.4619669,112 10.9032165,104.3722 3.26750258,89.1625361 L0.226823416,81.6694487 Z" fill="#000000" fill-rule="nonzero"></path>
            <g id="Oval-2" transform="translate(24.125902, 0.000000)" stroke="#000000" stroke-width="4">
                <circle id="Oval" cx="14.5" cy="14.5" r="14.5"></circle>
            </g>
            <path d="M38.1259016,27 L38.1259016,111" id="Line-4" stroke="#000000" stroke-width="4"></path>
            <path d="M21.7493075,50 L56.6741987,50" id="Line-5" stroke="#000000" stroke-width="4" stroke-linecap="square"></path>
            <path d="M77.1086236,80.4299789 C69.8919292,100.809993 56.8074578,111 37.8552093,111 C18.9029609,111 6.56513261,100.809993 0.841724358,80.4299789 C10.891137,95.8480013 23.2289653,103.557013 37.8552093,103.557013 C52.4814534,103.557013 65.5659248,95.8480013 77.1086236,80.4299789 Z" id="Polygon" fill="#000000"></path>
        </g>
    </g>
</svg>