<?xml version="1.0" encoding="UTF-8"?>
<svg width="64px" height="35px" viewBox="0 0 64 35" version="1.1" xmlns="http://www.w3.org/2000/svg" xmlns:xlink="http://www.w3.org/1999/xlink">
    <!-- Generator: Sketch 54.1 (76490) - https://sketchapp.com -->
    <title>Group</title>
    <desc>Created with Sketch.</desc>
    <g id="Page-1" stroke="none" stroke-width="1" fill="none" fill-rule="evenodd">
        <g id="Group">
            <path d="M16.5,11.5 L16.5,26.2452658" id="Line-3" stroke="#000000" stroke-width="2" stroke-linecap="square"></path>
            <path d="M46.5,13 L46.5,24.2452658" id="Line-3" stroke="#000000" stroke-width="2" stroke-linecap="square"></path>
            <path d="M31.5,7 L31.5,30" id="Line-3" stroke="#000000" stroke-width="2" stroke-linecap="square"></path>
            <path d="M55.5,18.5 L6.52787278,18.5" id="Line-2" stroke="#000000" stroke-width="3"></path>
            <circle id="Oval" fill="#000000" cx="39.5" cy="2.5" r="1.5"></circle>
            <circle id="Oval" fill="#000000" cx="31.5" cy="1.5" r="1.5"></circle>
            <circle id="Oval" fill="#000000" cx="46.5" cy="4.5" r="1.5"></circle>
            <circle id="Oval" fill="#000000" cx="52.5" cy="7.5" r="1.5"></circle>
            <circle id="Oval" fill="#000000" cx="59.5" cy="13.5" r="1.5"></circle>
            <circle id="Oval" fill="#000000" cx="62.5" cy="19.5" r="1.5"></circle>
            <circle id="Oval" fill="#000000" cx="59.5" cy="25.5" r="1.5"></circle>
            <circle id="Oval" fill="#000000" cx="52.5" cy="29.5" r="1.5"></circle>
            <circle id="Oval" fill="#000000" cx="46.5" cy="32.5" r="1.5"></circle>
            <circle id="Oval" fill="#000000" cx="39.5" cy="33.5" r="1.5"></circle>
            <circle id="Oval" fill="#000000" cx="31.5" cy="33.5" r="1.5"></circle>
            <circle id="Oval" fill="#000000" cx="24.5" cy="33.5" r="1.5"></circle>
            <circle id="Oval" fill="#000000" cx="23.5" cy="3.5" r="1.5"></circle>
            <circle id="Oval" fill="#000000" cx="16.5" cy="4.5" r="1.5"></circle>
            <circle id="Oval" fill="#000000" cx="9.5" cy="7.5" r="1.5"></circle>
            <circle id="Oval" fill="#000000" cx="4.5" cy="13.5" r="1.5"></circle>
            <circle id="Oval" fill="#000000" cx="1.5" cy="19.5" r="1.5"></circle>
            <circle id="Oval" fill="#000000" cx="9.5" cy="29.5" r="1.5"></circle>
            <circle id="Oval" fill="#000000" cx="16.5" cy="32.5" r="1.5"></circle>
            <circle id="Oval" fill="#000000" cx="4.5" cy="26.5" r="1.5"></circle>
        </g>
    </g>
</svg>