<?xml version="1.0" encoding="UTF-8"?>
<svg width="13px" height="10px" viewBox="0 0 13 10" version="1.1" xmlns="http://www.w3.org/2000/svg" xmlns:xlink="http://www.w3.org/1999/xlink">
    <!-- Generator: Sketch 54.1 (76490) - https://sketchapp.com -->
    <title>Group 35</title>
    <desc>Created with Sketch.</desc>
    <g id="Page-1" stroke="none" stroke-width="1" fill="none" fill-rule="evenodd">
        <g id="Group-35" transform="translate(0.000000, 1.000000)" stroke="#000000">
            <g id="Group-33" transform="translate(0.000000, 5.026288)">
                <path d="M0.915838208,1.5 L5,1.5" id="Line-8" stroke-linecap="square"></path>
                <path d="M8.5,1.5 L11.9845451,1.5" id="Line-8" stroke-linecap="square"></path>
                <circle id="Oval" cx="6.5" cy="1.5" r="1.5"></circle>
            </g>
            <path d="M6.5,4.02628835 C7.32842712,4.02628835 8,2.66194112 8,1.4784738 C8,0.295006474 7.32842712,-5.77315973e-15 6.5,-5.77315973e-15 C5.67157288,-5.77315973e-15 5,0.295006474 5,1.4784738 C5,2.66194112 5.67157288,4.02628835 6.5,4.02628835 Z" id="Oval" stroke-width="1.3"></path>
            <path d="M5.33479097,5.41434242 C6.56986412,4.69480844 5.83880396,4.11073087 5.11933683,3.47507657 C4.39986969,2.83942227 3.75167979,2.69465842 2.9579191,3.34865275 C2.16415842,4.00264708 2.05565802,5.00224471 2.77512515,5.63789902 C3.49459228,6.27355332 4.09971781,6.1338764 5.33479097,5.41434242 Z" id="Oval" stroke-width="1.1"></path>
            <path d="M7.63139482,5.43265587 C8.06801732,5.93301718 8.69930638,6.11378565 9.46154602,5.98221549 C9.84446699,5.91611952 9.96743587,5.77060339 10.2422726,5.56406977 C11.0641972,4.94641187 10.898238,4.17859001 10.2422726,3.42686572 C9.5863071,2.67514143 8.54396875,2.80920782 7.72204415,3.42686572 C6.90011955,4.04452362 6.97542935,4.68093159 7.63139482,5.43265587 Z" id="Oval" stroke-width="1.2"></path>
        </g>
    </g>
</svg>