<?xml version="1.0" encoding="UTF-8"?>
<svg width="18px" height="38px" viewBox="0 0 18 38" version="1.1" xmlns="http://www.w3.org/2000/svg" xmlns:xlink="http://www.w3.org/1999/xlink">
    <!-- Generator: Sketch 54.1 (76490) - https://sketchapp.com -->
    <title>Group 30</title>
    <desc>Created with Sketch.</desc>
    <g id="Page-1" stroke="none" stroke-width="1" fill="none" fill-rule="evenodd">
        <g id="Group-30" transform="translate(0.000000, 0.687316)">
            <g id="Group-29" transform="translate(12.534842, 5.000000) rotate(-345.000000) translate(-12.534842, -5.000000) translate(8.534842, 1.000000)" stroke="#000000" stroke-linecap="square" stroke-width="2">
                <path d="M6.5,6.5838515 L0.914536428,0.998387924" id="Line-9" transform="translate(3.500000, 3.583851) rotate(-90.000000) translate(-3.500000, -3.583851) "></path>
                <path d="M6.7002978,6.5 L1.11483423,0.914536428" id="Line-9-Copy" transform="translate(3.700298, 3.500000) rotate(-180.000000) translate(-3.700298, -3.500000) "></path>
            </g>
            <g id="Group-18" transform="translate(0.000000, 4.312684)">
                <g id="Group-15" transform="translate(0.000000, 0.281541)">
                    <g id="Group-13">
                        <g id="Group-12" transform="translate(0.000000, 0.196356)">
                            <g id="Group-9" stroke="#000000">
                                <g id="Group-4">
                                    <path d="M0.5,21.5 L5,21.5" id="Line-8" stroke-linecap="square"></path>
                                    <path d="M8.5,21.5 L12.5,21.5" id="Line-8" stroke-linecap="square"></path>
                                    <circle id="Oval" cx="6.5" cy="21.5" r="1.5"></circle>
                                    <path d="M12.5,0.0221028392 L6.5,19.5" id="Line-7" stroke-linecap="square"></path>
                                </g>
                            </g>
                            <polygon id="Path-2" fill="#000000" points="5.48271994 14.4624197 9.27098787 3.45474825 13 4.51770028 10.5 15.7173562 11.5 21.2340472 8 21.2340472 7.43085971 20 5.94006706 19.6760267 4.27545115 21.2340472 1.13801613 21.2340472"></polygon>
                        </g>
                    </g>
                    <path d="M5,23 L8.74753125,31.1386606 C10.0522729,32.1490522 11.3286935,32.2705162 12.5767931,31.5030526 C13.8248927,30.735589 14.2520896,29.6437688 13.8583836,28.2275919 L5,23 Z" id="Path" stroke="#000000" fill="#FED426"></path>
                </g>
            </g>
        </g>
    </g>
</svg>