<?xml version="1.0" encoding="UTF-8"?>
<svg width="16px" height="38px" viewBox="0 0 16 38" version="1.1" xmlns="http://www.w3.org/2000/svg" xmlns:xlink="http://www.w3.org/1999/xlink">
    <!-- Generator: Sketch 54.1 (76490) - https://sketchapp.com -->
    <title>Group 14</title>
    <desc>Created with Sketch.</desc>
    <g id="Page-1" stroke="none" stroke-width="1" fill="none" fill-rule="evenodd">
        <g id="Group-14">
            <g id="Group-12">
                <g id="Group-9" stroke="#000000">
                    <rect id="Rectangle" transform="translate(12.367885, 4.053509) rotate(16.000000) translate(-12.367885, -4.053509) " x="10.367885" y="1.05350933" width="4" height="6"></rect>
                    <g id="Group-4" transform="translate(0.000000, 7.000000)">
                        <path d="M0.5,19.5 L5,19.5" id="Line-8" stroke-linecap="square"></path>
                        <path d="M8.5,19.5 L12.5,19.5" id="Line-8" stroke-linecap="square"></path>
                        <circle id="Oval" cx="6.5" cy="19.5" r="1.5"></circle>
                        <path d="M11.5,0.5 L6.5,17.5" id="Line-7" stroke-linecap="square"></path>
                    </g>
                </g>
                <polygon id="Path-2" fill="#000000" points="5.48271994 19.4624197 9.27098787 8.45474825 13 9.51770028 10.5 20.7173562 11.5 26.2340472 8 26.2340472 7.43085971 25 5.94006706 24.6760267 4.27545115 26.2340472 1.13801613 26.2340472"></polygon>
            </g>
            <path d="M6,28 L9.74753125,36.1386606 C11.0522729,37.1490522 12.3286935,37.2705162 13.5767931,36.5030526 C14.8248927,35.735589 15.2520896,34.6437688 14.8583836,33.2275919 L6,28 Z" id="Path" stroke="#000000" fill="#EF4B5B"></path>
        </g>
    </g>
</svg>