<?xml version="1.0" encoding="UTF-8"?>
<svg width="15px" height="36px" viewBox="0 0 15 36" version="1.1" xmlns="http://www.w3.org/2000/svg" xmlns:xlink="http://www.w3.org/1999/xlink">
    <!-- Generator: Sketch 54.1 (76490) - https://sketchapp.com -->
    <title>Group 15</title>
    <desc>Created with Sketch.</desc>
    <g id="Page-1" stroke="none" stroke-width="1" fill="none" fill-rule="evenodd">
        <g id="Group-15" transform="translate(0.000000, -1.000000)">
            <g id="Group-13">
                <g id="Group-12" transform="translate(0.000000, 6.196356)">
                    <g id="Group-9" stroke="#000000">
                        <g id="Group-4">
                            <path d="M0.5,19.5 L5,19.5" id="Line-8" stroke-linecap="square"></path>
                            <path d="M8.5,19.5 L12.5,19.5" id="Line-8" stroke-linecap="square"></path>
                            <circle id="Oval" cx="6.5" cy="19.5" r="1.5"></circle>
                            <path d="M11.5,0.5 L6.5,17.5" id="Line-7" stroke-linecap="square"></path>
                        </g>
                    </g>
                    <polygon id="Path-2" fill="#000000" points="5.48271994 12.4624197 9.27098787 1.45474825 13 2.51770028 10.5 13.7173562 11.5 19.2340472 8 19.2340472 7.43085971 18 5.94006706 17.6760267 4.27545115 19.2340472 1.13801613 19.2340472"></polygon>
                </g>
                <polygon id="Triangle" fill="#000000" transform="translate(12.157198, 4.000000) rotate(-345.000000) translate(-12.157198, -4.000000) " points="12.1571975 1 15.6571975 7 8.65719753 7"></polygon>
            </g>
            <path d="M5,27 L8.74753125,35.1386606 C10.0522729,36.1490522 11.3286935,36.2705162 12.5767931,35.5030526 C13.8248927,34.735589 14.2520896,33.6437688 13.8583836,32.2275919 L5,27 Z" id="Path" stroke="#000000" fill="#18B589"></path>
        </g>
    </g>
</svg>