<?xml version="1.0" encoding="UTF-8"?>
<svg width="18px" height="32px" viewBox="0 0 18 32" version="1.1" xmlns="http://www.w3.org/2000/svg" xmlns:xlink="http://www.w3.org/1999/xlink">
    <!-- Generator: Sketch 54.1 (76490) - https://sketchapp.com -->
    <title>Group 17</title>
    <desc>Created with Sketch.</desc>
    <g id="Page-1" stroke="none" stroke-width="1" fill="none" fill-rule="evenodd">
        <g id="Group-17" transform="translate(0.000000, -2.000000)">
            <g id="Group-13">
                <g id="Group-12" transform="translate(0.000000, 12.196356)">
                    <g id="Group-9" stroke="#000000">
                        <g id="Group-4">
                            <path d="M0.5,19.5 L5,19.5" id="Line-8" stroke-linecap="square"></path>
                            <path d="M8.5,19.5 L12.5,19.5" id="Line-8" stroke-linecap="square"></path>
                            <circle id="Oval" cx="6.5" cy="19.5" r="1.5"></circle>
                            <path d="M11.5,0.5 L6.5,17.5" id="Line-7" stroke-linecap="square"></path>
                        </g>
                    </g>
                    <polygon id="Path-2" fill="#000000" points="5.48271994 12.4624197 9.27098787 1.45474825 13 2.51770028 10.5 13.7173562 11.5 19.2340472 8 19.2340472 7.43085971 18 5.94006706 17.6760267 4.27545115 19.2340472 1.13801613 19.2340472"></polygon>
                </g>
                <g id="Group-16" transform="translate(12.988474, 8.190466) rotate(-165.000000) translate(-12.988474, -8.190466) translate(9.488474, 2.690466)" fill="#000000">
                    <polygon id="Triangle" transform="translate(3.500000, 3.000000) rotate(-360.000000) translate(-3.500000, -3.000000) " points="3.5 0 7 6 0 6"></polygon>
                    <polygon id="Triangle" transform="translate(3.500000, 8.000000) rotate(-360.000000) translate(-3.500000, -8.000000) " points="3.5 5 7 11 0 11"></polygon>
                </g>
            </g>
        </g>
    </g>
</svg>