<?xml version="1.0" encoding="UTF-8"?>
<svg width="14px" height="40px" viewBox="0 0 14 40" version="1.1" xmlns="http://www.w3.org/2000/svg" xmlns:xlink="http://www.w3.org/1999/xlink">
    <!-- Generator: Sketch 54.1 (76490) - https://sketchapp.com -->
    <title>Group 20</title>
    <desc>Created with Sketch.</desc>
    <g id="Page-1" stroke="none" stroke-width="1" fill="none" fill-rule="evenodd">
        <g id="Group-20">
            <g id="Group-5">
                <g id="Group-4">
                    <path d="M0.5,28.5 L3,28.5" id="Line-8" stroke="#000000" stroke-linecap="square"></path>
                    <path d="M6.5,28.5 L8.5,28.5" id="Line-8" stroke="#000000" stroke-linecap="square"></path>
                    <polygon id="Triangle" fill="#000000" transform="translate(4.500000, 3.000000) rotate(-180.000000) translate(-4.500000, -3.000000) " points="4.5 0 8 6 1 6"></polygon>
                    <polygon id="Triangle" fill="#000000" transform="translate(4.500000, 8.000000) rotate(-360.000000) translate(-4.500000, -8.000000) " points="4.5 5 8 11 1 11"></polygon>
                    <circle id="Oval" stroke="#000000" cx="4.5" cy="28.5" r="1.5"></circle>
                    <path d="M4.5,3.5 L4.5,26.5" id="Line-7" stroke="#000000" stroke-linecap="square"></path>
                </g>
                <path d="M4,30 L7.74753125,38.1386606 C9.0522729,39.1490522 10.3286935,39.2705162 11.5767931,38.5030526 C12.8248927,37.735589 13.2520896,36.6437688 12.8583836,35.2275919 L4,30 Z" id="Path" stroke="#000000" fill="#FED426"></path>
                <polygon id="Rectangle" fill="#000000" points="2 17 7 17 7 28.5 4.5 27 2 28.5"></polygon>
            </g>
        </g>
    </g>
</svg>