<?xml version="1.0" encoding="UTF-8"?>
<svg width="14px" height="44px" viewBox="0 0 14 44" version="1.1" xmlns="http://www.w3.org/2000/svg" xmlns:xlink="http://www.w3.org/1999/xlink">
    <!-- Generator: Sketch 54.1 (76490) - https://sketchapp.com -->
    <title>Group 32</title>
    <desc>Created with Sketch.</desc>
    <g id="Page-1" stroke="none" stroke-width="1" fill="none" fill-rule="evenodd">
        <g id="Group-32" transform="translate(0.000000, 1.000000)">
            <g id="Group-27">
                <g id="Group-26" stroke="#000000">
                    <g id="Group-25" transform="translate(0.000000, 3.083851)">
                        <g id="Group-4">
                            <path d="M0.5,28.5 L3,28.5" id="Line-8" stroke-linecap="square"></path>
                            <path d="M6.5,28.5 L8.5,28.5" id="Line-8" stroke-linecap="square"></path>
                            <circle id="Oval" cx="4.5" cy="28.5" r="1.5"></circle>
                            <path d="M4.5,0.5625 L4.5,26.4375" id="Line-7" stroke-linecap="square"></path>
                        </g>
                    </g>
                    <g id="Group-29" transform="translate(1.000000, 0.000000)" stroke-linecap="square" stroke-width="2">
                        <path d="M6.5,6.5838515 L0.914536428,0.998387924" id="Line-9" transform="translate(3.500000, 3.583851) rotate(-90.000000) translate(-3.500000, -3.583851) "></path>
                        <path d="M6.7002978,6.5 L1.11483423,0.914536428" id="Line-9-Copy" transform="translate(3.700298, 3.500000) rotate(-180.000000) translate(-3.700298, -3.500000) "></path>
                    </g>
                </g>
                <polygon id="Rectangle" fill="#000000" points="2 20 7 20 7 31.5 4.5 30 2 31.5"></polygon>
            </g>
            <path d="M4,33 L7.74753125,41.1386606 C9.0522729,42.1490522 10.3286935,42.2705162 11.5767931,41.5030526 C12.8248927,40.735589 13.2520896,39.6437688 12.8583836,38.2275919 L4,33 Z" id="Path" stroke="#000000" fill="#FED426"></path>
        </g>
    </g>
</svg>